<?xml version="1.0" standalone="no"?>
<!DOCTYPE svg PUBLIC "-//W3C//DTD SVG 1.1//EN" "http://www.w3.org/Graphics/SVG/1.1/DTD/svg11.dtd" >
<svg xmlns="http://www.w3.org/2000/svg">
<metadata></metadata>
<defs>
<font id="adviobold" horiz-adv-x="1635" >
<font-face units-per-em="2048" ascent="1638" descent="-410" />
<missing-glyph horiz-adv-x="508" />
<glyph horiz-adv-x="0" />
<glyph unicode="&#xd;" horiz-adv-x="508" />
<glyph unicode=" "  horiz-adv-x="508" />
<glyph unicode="&#x09;" horiz-adv-x="508" />
<glyph unicode="&#xa0;" horiz-adv-x="508" />
<glyph unicode="!" horiz-adv-x="486" d="M100 134q0 16 17 33l95 89q18 15 34 15q14 0 34 -17l93 -91q13 -17 13 -31q0 -15 -16 -32l-91 -94q-24 -21 -33 -21q-19 0 -34 15l-101 107q-11 14 -11 27zM137 1334q0 72 27.5 102t93.5 30q67 0 94 -30t27 -102l-81 -986h-112z" />
<glyph unicode="&#x22;" horiz-adv-x="734" d="M100 1500q0 29 24 58t86 29q60 0 86 -28.5t26 -57.5q0 -5 -2 -23l-54 -380h-110l-53 376q-3 19 -3 26zM412 1500q0 29 24.5 58t86.5 29q60 0 85.5 -28.5t25.5 -57.5q0 -5 -2 -23l-53 -380h-111l-52 377q-4 18 -4 25z" />
<glyph unicode="'" horiz-adv-x="422" d="M100 1500q0 29 24 58t86 29q60 0 86 -28.5t26 -57.5q0 -5 -2 -23l-54 -380h-110l-53 376q-3 19 -3 26z" />
<glyph unicode="," horiz-adv-x="520" d="M100 93v34l130 137q93 0 141.5 -71.5t48.5 -151.5q0 -103 -74 -226.5t-204 -123.5v46q73 42 87 193q0 121 -129 163z" />
<glyph unicode="-" horiz-adv-x="742" d="M100 437v83q0 39 43 39h456q43 0 43 -39v-83q0 -38 -42 -38h-458q-42 0 -42 38z" />
<glyph unicode="." horiz-adv-x="486" d="M100 144q0 16 17 33l95 89q18 15 34 15q14 0 34 -17l93 -91q13 -17 13 -31q0 -15 -16 -32l-91 -94q-24 -21 -33 -21q-19 0 -34 15l-101 107q-11 14 -11 27z" />
<glyph unicode="0" horiz-adv-x="1164" d="M100 717q0 187 56.5 359t170 276.5t255.5 104.5q141 0 254.5 -104.5t170.5 -277t57 -358.5q0 -187 -55.5 -357t-168.5 -276.5t-258 -106.5t-258 106.5t-168.5 276.5t-55.5 357zM359 811q0 -62 5 -125q14 -180 62.5 -339t96.5 -233q41 -65 94 -65h8q73 4 106.5 92.5 t57.5 256.5q16 108 16 224q0 61 -5 125q-14 181 -63.5 341.5t-91.5 233.5q-39 63 -102 63h-7q-59 -3 -97.5 -90t-62.5 -257q-17 -110 -17 -227z" />
<glyph unicode="1" horiz-adv-x="880" d="M100 1191v54q295 69 411 189h70v-1144q0 -220 91 -220h108v-70h-664v70h108q91 0 91 220v784q0 117 -65 117h-150z" />
<glyph unicode="2" horiz-adv-x="1068" d="M100 0l2 50q569 666 569 984q0 150 -78.5 237t-146.5 87q-171 0 -293 -169h-53v90q184 174 352 174q216 0 349 -128.5t133 -343.5q0 -201 -626 -864h407q124 0 183 132h70l-112 -249h-756z" />
<glyph unicode="3" horiz-adv-x="1095" d="M100 113v109h70q0 -84 92 -137t234 -53q99 0 165.5 81t66.5 310q0 110 -50 207.5t-187 144.5v9q198 133 198 288q0 145 -42 234t-120 89q-83 0 -147.5 -43.5t-64.5 -120.5h-70v166q0 21 71 39t204 18q115 0 209 -46q113 -54 160 -134t47 -159q0 -78 -55.5 -157 t-160.5 -129q-24 -11 -32 -13q161 -56 234 -180.5t73 -228.5q0 -204 -143 -316t-356 -112q-212 0 -304 45.5t-92 88.5z" />
<glyph unicode="4" horiz-adv-x="1200" d="M100 332v36l668 1066h70v-984h32q99 0 159 131h71l-111 -249h-151v-157q0 -105 60 -105h88v-70h-546v70h88q69 0 69 108v154h-497zM268 450h329v550z" />
<glyph unicode="5" horiz-adv-x="1094" d="M100 105v110h70q1 -85 93.5 -137t208.5 -56q112 3 172.5 130t60.5 346q0 187 -78 310.5t-172 123.5q-79 -1 -184 -51l-53 27l159 526h425q99 0 122 63h70l-60 -173h-463l-100 -331q84 13 144 13q176 0 324 -150t148 -379q0 -125 -56 -244t-173 -192t-287 -73 q-192 5 -281.5 49t-89.5 88z" />
<glyph unicode="6" horiz-adv-x="1164" d="M100 480q0 399 215.5 689t612.5 290v-70q-194 -15 -334 -146.5t-212 -316.5q43 58 200 58q133 0 250 -72.5t174.5 -190t57.5 -241.5t-56 -241t-172.5 -190t-253.5 -73t-253.5 73t-172.5 190t-56 241zM359 539q0 -43 5 -81q14 -124 62.5 -231.5t107.5 -154.5 q51 -41 86 -41h6q39 3 89 59t74 171q16 75 16 154q0 43 -5 86q-14 124 -63 233t-108 155q-53 40 -90 40h-4q-34 -2 -84 -57.5t-76 -171.5q-16 -86 -16 -161z" />
<glyph unicode="7" horiz-adv-x="1127" d="M100 1184l111 250h816l-1 -53q-401 -855 -401 -1201q1 -110 55 -110h140v-70h-495v70h99q60 0 60 117q19 287 256 1129h-407q-103 0 -163 -132h-70z" />
<glyph unicode="8" horiz-adv-x="1164" d="M100 407q0 104 60.5 211t247.5 192q-140 69 -188 147.5t-48 157.5t49 159t148.5 130t212.5 50q111 0 211.5 -50t149.5 -130t49 -159t-48 -157.5t-186 -147.5q189 -95 247.5 -197t58.5 -206q0 -103 -57 -203.5t-173.5 -164t-251.5 -63.5t-251.5 63.5t-173.5 164t-57 203.5 zM362 427q0 -140 77.5 -270.5t182.5 -130.5q64 3 123.5 95.5t59.5 230.5q0 156 -68.5 268t-195.5 151q-60 -11 -124 -139q-55 -110 -55 -205zM405 1158q0 -100 46 -188t180 -129q67 13 97 96.5t30 151.5q0 142 -62.5 231.5t-151.5 89.5q-56 -2 -97.5 -75.5t-41.5 -176.5z " />
<glyph unicode="9" horiz-adv-x="1164" d="M100 954q0 124 56 241t172.5 190.5t253.5 73.5t253.5 -73.5t172.5 -190.5t56 -241q0 -399 -215.5 -687t-612.5 -291v69q194 15 334 146.5t191 289.5q-44 -31 -179 -31q-133 0 -250 72.5t-174.5 190t-57.5 241.5zM359 1019q0 -201 81 -357.5t185 -156.5h5q72 3 123.5 104 t51.5 286q0 221 -89.5 364.5t-171.5 143.5q-64 -3 -124.5 -119t-60.5 -265z" />
<glyph unicode=":" horiz-adv-x="486" d="M100 144q0 16 17 33l95 89q18 15 34 15q14 0 34 -17l93 -91q13 -17 13 -31q0 -15 -16 -32l-91 -94q-24 -21 -33 -21q-19 0 -34 15l-101 107q-11 14 -11 27zM100 830q0 16 17 33l95 89q18 15 34 15q14 0 34 -17l93 -91q13 -17 13 -31q0 -15 -16 -32l-91 -94 q-24 -21 -33 -21q-19 0 -34 15l-101 107q-11 14 -11 27z" />
<glyph unicode=";" horiz-adv-x="520" d="M100 93v34l130 137q93 0 141.5 -71.5t48.5 -151.5q0 -103 -74 -226.5t-204 -123.5v46q73 42 87 193q0 121 -129 163zM124 830q0 16 17 33l95 89q18 15 34 15q14 0 34 -17l93 -91q13 -17 13 -31q0 -15 -16 -32l-91 -94q-24 -21 -33 -21q-19 0 -34 15l-101 107 q-11 14 -11 27z" />
<glyph unicode="?" horiz-adv-x="826" d="M100 1225v98q49 44 91 68q92 52 197 52q159 0 248.5 -76t89.5 -183q0 -64 -31.5 -133t-124.5 -184q-89 -113 -141.5 -188.5t-52.5 -150.5q0 -56 37 -198h-136q-55 152 -55 220q0 103 116.5 306t116.5 315q0 89 -39 128t-92 39q-79 0 -224 -113zM203 141q0 16 17 33l95 89 q18 15 34 15q14 0 34 -17l93 -91q13 -17 13 -31q0 -15 -16 -32l-91 -94q-24 -21 -33 -21q-19 0 -34 15l-101 107q-11 14 -11 27z" />
<glyph unicode="A" horiz-adv-x="1633" d="M100 269q0 -112 79 -190q78 -79 190 -79h895q76 0 141 40q62 38 97 103q31 59 31 126q0 68 -33 128l-34 68l-405 811q-20 44 -54 78q-79 79 -190 79q-112 0 -190 -79q-35 -34 -55 -78l-439 -879q-33 -60 -33 -128zM210 269q0 40 20 75l443 886q11 26 32 46q46 47 112 47 q65 0 111 -47q21 -20 32 -46l322 -643q-22 3 -43 3q-37 0 -73 -10q-130 -39 -373 -238q-139 -114 -209 -157q-117 -73 -206 -74h-9q-66 0 -112 46q-47 46 -47 112zM672 111q66 44 191 145q226 185 334 218q20 6 41 6q24 0 49 -8q51 -16 83 -62l32 -62v-2l1 -2q20 -35 20 -75 t-19 -74q-45 -84 -140 -84h-592z" />
<glyph unicode="B" horiz-adv-x="1632" d="M100 268q0 -111 79 -189q78 -79 190 -79h760q167 0 285 118t118 285q0 129 -74 233q-73 102 -191 145q86 109 86 248q0 167 -116 285q-117 118 -284 118h-584q-112 0 -190 -79q-79 -78 -79 -189v-896zM210 269v199q1 48 60 87q60 38 134 39h540h8q132 0 238 98l40 -15 q86 -31 139 -107q53 -75 53 -167q0 -121 -86 -207t-207 -86h-760q-66 0 -112 47q-47 46 -47 112zM210 647v517q0 65 47 111q46 47 112 47h584q120 0 205 -86t85 -207q0 -100 -62 -180l-39 -49q-90 -95 -192 -95h-547q-105 -2 -193 -58z" />
<glyph unicode="C" horiz-adv-x="1636" d="M100 718q0 -297 210 -508q211 -210 508 -210t508 210q210 211 210 508q0 194 -97 361l-6 9q-96 159 -256 252q-166 96 -359 96q-297 0 -508 -210q-210 -211 -210 -508zM211 718q0 251 178 429t429 178q163 0 304 -82q137 -79 218 -215q3 -10 -4 -22q-13 -22 -47 -38 q-34 -15 -69 -15h-403q-96 0 -165 -69t-69 -166t69 -166t166 -69h402q65 0 99 -47q17 -24 10 -46q-83 -128 -216 -203q-137 -76 -295 -76q-251 0 -429 178t-178 429zM694 718q0 51 36 88q36 36 88 36h402q102 0 175 65q30 -92 30 -189q0 -101 -33 -197q-68 73 -172 73h-402 q-51 0 -88 36q-36 37 -36 88z" />
<glyph unicode="D" horiz-adv-x="1632" d="M100 268q0 -111 79 -190q78 -78 190 -78h451q33 0 68 4q27 2 40 5q259 40 430 240q174 201 174 467q0 295 -209 505q-208 209 -503 211h-451q-112 0 -190 -79q-79 -78 -79 -189v-896zM210 268v489q114 -96 247 -96h13h277q125 0 214 -89q88 -89 88 -214q0 -88 -31 -151 q-37 -73 -108 -89q-45 -7 -91 -8h-450q-66 0 -112 47q-46 46 -47 111zM210 954v210q1 65 47 111q46 47 112 47l450 -1q249 -1 426 -178q177 -178 177 -427q0 -159 -79 -298q-76 -134 -207 -216q24 71 24 156q0 171 -121 292t-292 121h-280h-12q-101 0 -186 81 q-58 56 -58 102h-1z" />
<glyph unicode="E" d="M100 269q0 -111 79 -190t190 -79h897q111 0 190 79t79 190q0 144 -120 224q120 80 120 224q0 145 -120 225q120 80 120 224q0 111 -79 190t-190 79h-897q-111 0 -190 -79t-79 -190v-897zM211 269v36q1 42 52 75q49 31 103 31h831q54 0 110 21l46 -31q71 -47 71 -132 q0 -65 -46 -112q-47 -46 -112 -46h-897q-65 0 -112 46q-46 47 -46 112zM211 476v178q0 206 155 206h808h5q61 0 126 22l48 -32q71 -48 71 -133q0 -84 -71 -132l-42 -28q-57 -35 -114 -35h-831q-82 -1 -155 -46zM211 923v243q0 65 46 112q47 46 112 46h897q65 0 112 -46 q46 -47 46 -112q0 -85 -71 -132l-48 -33q-61 -30 -126 -30h-4h-809q-92 0 -155 -48z" />
<glyph unicode="F" d="M100 269q0 -112 79 -190q79 -79 190 -79t190 79q79 78 79 190v179h179q112 0 191 79t79 190q0 103 -69 180h248q111 0 190 79q79 78 79 190q0 111 -79 190t-190 79h-897q-111 0 -190 -79q-79 -78 -79 -190v-897zM211 269v429q4 87 58 143q55 56 137 56h463l67 -74 q40 -45 40 -106q0 -64 -45 -110t-110 -48h-293l-1 -290q0 -66 -46 -112t-112 -46q-65 0 -112 46q-46 46 -46 112zM211 937v229q0 66 46 112q47 46 112 46h897q65 0 112 -46q46 -47 46 -112q0 -66 -46 -112q-47 -47 -112 -47h-211v1h-649q-112 0 -195 -71z" />
<glyph unicode="G" horiz-adv-x="1636" d="M100 718q0 -297 210 -508q211 -210 508 -210h449q111 0 190 79t79 190v449q0 297 -210 508q-211 210 -508 210t-508 -210q-210 -211 -210 -508zM211 718q0 251 178 429t429 178q160 0 298 -78q134 -76 216 -206q9 -26 -4 -45q-31 -43 -108 -43h-403q-97 0 -165 -69 q-69 -69 -69 -166t69 -166t166 -69h472q76 0 135 24v-238q0 -65 -46 -112q-47 -46 -112 -46h-449q-251 0 -429 178t-178 429zM694 718q0 51 36 88q36 36 87 36h403q108 0 175 64q30 -92 30 -189v-59q0 -18 -11 -30q-34 -34 -124 -34h-472q-51 0 -88 36q-36 37 -36 88z" />
<glyph unicode="H" d="M100 269q0 -111 79 -190t190 -79h897q111 0 190 79t79 190v897q0 111 -79 190t-190 79t-190 -79t-79 -190q0 -74 -53 -127q-52 -52 -126 -52q-75 0 -127 52q-53 53 -53 127q0 111 -79 190q-78 79 -190 79q-111 0 -190 -79t-79 -190v-897zM211 269v897q0 65 46 112 q47 46 112 46q66 0 112 -46q47 -47 47 -112q0 -120 85 -205t205 -85q119 0 204 85t86 205q0 65 46 112q46 46 112 46q65 0 112 -46q46 -47 46 -112v-897q0 -65 -46 -112q-47 -46 -112 -46h-71q-58 0 -100 46q-42 47 -43 112q0 97 -69 166q-68 69 -165 69t-166 -69t-69 -166 q0 -68 -36 -113q-37 -45 -92 -45h-86q-65 0 -112 46q-46 47 -46 112zM650 111q43 69 43 158q1 51 37 88q36 36 88 36q51 0 87 -36q37 -37 37 -88q0 -87 49 -158h-341z" />
<glyph unicode="I" horiz-adv-x="739" d="M100 270q0 -112 79 -191t191 -79q111 0 190 79t79 191v898q0 112 -79 191t-190 79q-112 0 -191 -79t-79 -191v-898zM211 270v19q0 112 212 417q72 104 105 157v-593q0 -66 -46 -113q-47 -46 -112 -46q-66 0 -113 46q-46 47 -46 113zM211 588v580q0 66 46 113 q47 46 113 46q65 0 112 -46q46 -47 46 -113v-24q-2 -95 -196 -375q-84 -120 -121 -181z" />
<glyph unicode="J" horiz-adv-x="1633" d="M100 524q6 -219 162 -371q157 -153 375 -153h359q222 0 380 157q157 158 157 380v627q0 112 -79 190q-78 79 -190 79q-111 0 -190 -79q-78 -78 -78 -190v-627q0 -74 -53 -126q-52 -53 -126 -53q-75 0 -127 53q-53 52 -53 126q0 112 -78 190q-79 79 -190 79 q-112 0 -190 -79q-79 -78 -79 -190v-13zM210 537q0 66 47 112q46 47 112 47q65 0 112 -47q46 -46 46 -112v-16q2 -244 169 -406q0 -1 2 -2l3 -3h-64q-175 0 -298 121q-124 120 -128 295q-1 8 -1 11zM714 267q50 -19 103 -19q119 0 204 85t85 204v627q0 66 47 112 q46 47 111 47q66 0 112 -47q47 -46 47 -112v-627q0 -176 -126 -301q-125 -126 -301 -126h-41q-100 4 -182 84q-32 31 -59 73z" />
<glyph unicode="K" d="M100 269q0 -111 79 -190t190 -79h897q108 0 186 74q77 74 83 181v14q0 115 -83 194l-254 254l254 255q83 79 83 194q0 111 -79 190t-190 79h-897q-111 0 -190 -79t-79 -190v-897zM211 269v897q0 66 46 112q47 46 112 46h292q-17 -42 -17 -94q0 -97 67 -165l665 -682 q49 -46 49 -114q0 -4 -1 -8q-3 -63 -49 -107q-46 -43 -109 -43h-897q-65 0 -112 46q-46 47 -46 112zM754 1230q0 94 66 94h446q66 0 112 -46q47 -47 47 -112q0 -67 -49 -114l-256 -256l-330 346q-36 37 -36 88z" />
<glyph unicode="L" d="M100 269q0 -111 78 -190q79 -79 190 -79h898q112 0 190 79q79 79 79 190q0 106 -73 183q-902 903 -904 905q-5 5 -17 16q-75 62 -172 62q-111 0 -190 -79t-79 -190v-897zM211 269v897q0 65 46 112q47 46 112 46q64 0 111 -45q86 -88 90 -276v-295q0 -97 69 -165 q68 -69 165 -69h322q153 0 239 -80l11 -11q48 -46 48 -114q0 -65 -46 -112q-46 -46 -112 -46h-897q-66 0 -112 46q-46 47 -46 112zM676 1083l501 -501q-30 3 -56 2h-317q-51 0 -87 37q-36 36 -36 87v274q-4 90 -5 101z" />
<glyph unicode="M" horiz-adv-x="2234" d="M100 269q0 -67 31 -126q35 -65 97 -103q65 -40 141 -40h1496q112 0 190 79q79 78 79 190q0 68 -33 128l-439 879q-20 44 -54 78q-79 79 -190 79q-112 0 -190 -79q-35 -34 -55 -78l-56 -112l-56 112q-20 44 -54 78q-79 79 -190 79q-112 0 -190 -79q-35 -34 -55 -78 l-439 -879q-33 -60 -33 -128zM211 269q0 40 19 75l443 886q11 26 32 46q46 47 112 47q65 0 112 -47q20 -20 32 -46l457 -941q55 -114 116 -178h-1165q-95 0 -140 84q-18 34 -18 74zM1178 1039l96 191q11 26 32 46q46 47 112 47q65 0 111 -47q21 -20 33 -46l443 -886 q19 -35 19 -75q0 -66 -47 -112q-46 -46 -112 -46h-92q-79 3 -139 56q-60 54 -116 170z" />
<glyph unicode="N" horiz-adv-x="1634" d="M100 269q0 -111 79 -190q78 -79 190 -79h896q111 0 190 79q79 78 79 190v896q0 112 -79 190q-78 79 -190 79q-111 0 -190 -79q-79 -78 -79 -190v-247l-433 433q-80 83 -194 83q-112 0 -190 -79q-79 -78 -79 -190v-896zM210 269v212q3 63 46 100t113 37q88 0 151 -62 l409 -398q26 -25 53 -47h-616q-65 1 -110 47q-46 46 -46 111zM210 684v481q0 66 47 112q46 46 112 46q67 0 114 -48l435 -435l189 -189v514q0 66 46 112q47 46 112 46q66 0 112 -46t46 -112v-896q0 -66 -46 -112q-47 -46 -112 -46h-55q-74 4 -205 126l-408 398 q-95 94 -228 94q-90 0 -159 -45z" />
<glyph unicode="O" horiz-adv-x="1633" d="M100 716q0 -296 210 -506t506 -210q19 0 42 1q32 2 58 6q263 37 439 237q178 203 178 472q0 297 -210 507t-507 210q-25 0 -49 -2q-281 -19 -473 -225q-194 -206 -194 -490zM211 716q0 273 204 454q-12 -47 -12 -95q0 -171 121 -293q122 -121 292 -121q126 0 215 -89 q89 -88 89 -214t-89 -190q-61 -44 -157 -55q-30 -3 -58 -3q-250 0 -428 178q-177 178 -177 428zM514 1075q0 119 85 185q72 55 188 62q16 1 29 1q251 0 429 -178t178 -429q0 -271 -204 -452q11 46 11 94q0 171 -121 292q-121 122 -293 122q-125 0 -214 89q-88 88 -88 214z " />
<glyph unicode="P" d="M100 269q0 -111 79 -190t190 -79q112 0 190 79q79 79 79 190v90q0 37 26 63q27 27 64 27h314q204 0 349 144q144 144 144 349q0 204 -145 349q-145 144 -350 144h-581q-149 0 -254 -105t-105 -254v-807zM211 269v25q1 64 31 105q36 50 102 50h205q-21 -43 -21 -90v-90 q0 -65 -47 -112q-46 -46 -112 -46q-65 0 -112 46q-46 47 -46 112zM211 521v555q0 103 72 176q73 72 176 72h581q159 0 272 -112q112 -112 112 -270t-112 -271q-112 -112 -270 -112h-698q-75 0 -133 -38z" />
<glyph unicode="Q" horiz-adv-x="1633" d="M100 717q0 -297 210 -507t506 -210q148 0 282 58q73 -58 166 -58q112 0 190 79q79 78 79 190q0 93 -58 166q58 134 58 282q0 296 -210 506t-507 210q-296 0 -506 -210t-210 -506zM212 677q0 50 29 78q29 27 81 27q51 0 87 -36l599 -604q-93 -31 -192 -31q-240 0 -415 164 q-174 165 -189 402zM232 876q53 195 214 320q164 127 370 127q251 0 429 -178t178 -428q0 -125 -49 -239l-26 -60l41 -52q34 -43 34 -97q0 -66 -47 -112q-46 -46 -112 -46q-54 0 -97 33l-27 21l-653 660q-68 67 -165 67q-48 0 -90 -16z" />
<glyph unicode="R" d="M100 269q0 -111 79 -190t190 -79h837q100 6 173 79q79 79 79 190q0 112 -79 191l-68 68q103 67 162 175q62 111 62 239q0 204 -144 349q-145 144 -349 144h-583q-149 0 -254 -105t-105 -254v-807zM211 269v50q1 50 26 86q28 40 72 41h730q94 0 169 28l25 -24l68 -68 q46 -47 46 -113q0 -65 -46 -112q-42 -42 -102 -46h-13h-817q-65 0 -112 46q-46 47 -46 112zM211 528v548q0 103 72 176q73 72 176 72h583q158 0 270 -112t112 -270q0 -98 -46 -183t-128 -138l-8 -6q-89 -58 -203 -58l-731 -1q-52 -1 -97 -28z" />
<glyph unicode="S" horiz-adv-x="1634" d="M100 538q0 -223 210 -380q210 -158 507 -158h8q294 2 502 160q207 157 207 378q0 92 -41 179q41 87 41 179q0 223 -210 380q-210 158 -507 158t-507 -158q-210 -157 -210 -380q0 -73 27 -145q9 -24 14 -34q-41 -87 -41 -179zM211 538q0 35 8 71q106 -123 266 -192 q161 -70 344 -70q51 0 88 -36q36 -36 36 -87q0 -49 -36 -80q-32 -29 -79 -33h-21h-4q-258 0 -437 135q-165 124 -165 292zM211 896q0 168 165 292q90 67 209 103q-14 -39 -14 -80q0 -97 69 -166t166 -69q200 0 363 -93q164 -92 238 -248q16 -48 16 -97q0 -168 -165 -292 q-90 -68 -210 -103q16 39 16 81q0 97 -69 165q-69 69 -166 69q-199 0 -362 91q-163 90 -237 242q-19 52 -19 105zM682 1211q0 48 30 79q31 31 81 33q31 0 24 0q260 0 441 -135q165 -124 165 -292q0 -35 -9 -72q-106 123 -265 192q-161 71 -343 71q-52 0 -88 36t-36 88z" />
<glyph unicode="T" horiz-adv-x="1636" d="M100 1167q0 -112 79 -191q79 -78 190 -79h180v-628q0 -111 79 -190t190 -79t190 79t79 190v628h180q111 1 190 79q79 79 79 191q0 111 -79 190t-190 79h-898q-111 0 -190 -79t-79 -190zM211 1167q0 65 46 112q47 46 112 46h898q65 0 112 -46q46 -47 46 -112 q0 -66 -46 -112q-47 -47 -112 -47h-304q-180 0 -304 -133v133h-290q-65 0 -112 47q-46 46 -46 112zM659 269v326q1 125 90 214q89 88 214 88h13v-628q0 -65 -46 -112q-47 -46 -112 -46q-66 0 -112 46q-46 47 -47 112z" />
<glyph unicode="U" horiz-adv-x="1634" d="M100 713q2 -295 211 -504q210 -209 506 -209t506 209q209 209 211 504v452q0 111 -79 190q-78 79 -190 79h-896q-112 0 -190 -79q-79 -79 -79 -190v-452zM211 714v451q0 66 46 112t112 46h104q102 0 173 -40q109 -62 109 -209v-278q0 -171 121 -292q121 -122 292 -122 q100 0 179 41q-79 -142 -219 -226q-143 -86 -311 -86q-249 0 -427 177q-178 176 -179 426zM770 1323h495q66 0 112 -46t46 -112l1 -389q0 -133 -68 -208t-188 -75q-125 0 -214 89t-89 214v278q0 153 -95 249z" />
<glyph unicode="V" d="M100 1166q0 -69 33 -129l440 -880q20 -44 54 -78q79 -79 191 -79q111 0 190 79q34 34 54 78l406 812l34 68q33 60 33 129q0 67 -31 126q-35 65 -97 103q-65 40 -141 40h-897q-111 0 -190 -79t-79 -190zM211 1166q0 65 46 112q47 46 112 46h9q89 -1 206 -74 q70 -44 210 -157q243 -200 373 -238q36 -11 73 -11q22 0 44 4l-322 -645q-12 -26 -32 -46q-47 -46 -112 -46q-66 0 -112 46q-21 20 -33 46l-443 887q-19 36 -19 76zM673 1324h593q95 0 140 -84q18 -34 18 -74q0 -41 -19 -76l-1 -2l-1 -1l-31 -63q-32 -46 -84 -62 q-23 -7 -46 -8q-21 0 -43 7q-109 32 -335 217q-125 102 -191 146z" />
<glyph unicode="W" horiz-adv-x="2235" d="M100 1165q0 -68 33 -128l439 -880q21 -44 55 -78q79 -79 190 -79t190 79q35 34 55 78l56 112l56 -112q20 -44 54 -78q79 -79 190 -79q112 0 191 79q34 34 54 78l440 880q32 59 32 128q0 112 -78 190q-79 79 -190 79h-1498q-76 0 -141 -40q-62 -38 -97 -103 q-31 -59 -31 -126zM211 1165q0 40 18 74q45 84 140 84h1166q-61 -65 -116 -178l-458 -942q-12 -26 -32 -46q-46 -46 -112 -46t-112 46q-20 20 -32 46l-443 886q-19 36 -19 76zM1179 394l340 703q56 116 116 169q60 54 139 57h93q65 0 111 -46q47 -46 47 -112q0 -40 -19 -75 l-444 -887q-11 -26 -32 -46q-46 -46 -112 -46q-65 0 -111 46q-21 20 -33 46z" />
<glyph unicode="X" d="M100 269q0 -111 79 -190t190 -79q115 0 194 83l254 254l255 -254q79 -83 194 -83q111 0 190 79t79 190v897q0 111 -79 190t-190 79q-115 0 -194 -83l-255 -254l-254 254q-79 83 -194 83q-111 0 -190 -79t-79 -190v-897zM211 269v32q0 36 42 116q43 85 88 127 q73 67 73 169q0 98 -69 175q-127 141 -134 231v47q0 65 46 112q47 46 112 46q68 0 114 -48l334 -335l335 335q47 48 114 48q66 0 112 -46q46 -47 46 -112v-38v-5q0 -32 -34 -95q-39 -73 -100 -140q-69 -77 -69 -175q0 -102 72 -169q45 -42 89 -127q41 -80 42 -116v-32 q0 -65 -46 -112q-47 -46 -112 -46q-67 0 -114 48l-335 335l-332 -333l-1 -1l-1 -1q-46 -48 -114 -48q-65 0 -112 46q-46 47 -46 112zM211 560v317q25 -34 52 -63q37 -42 40 -94v-10q0 -51 -37 -85q-27 -25 -55 -65zM1332 720q3 53 40 94q27 29 52 64v-318q-28 40 -55 65 q-37 34 -37 85v10z" />
<glyph unicode="Y" horiz-adv-x="1633" d="M100 1164q0 -114 82 -193l366 -366v-336q0 -112 79 -190q78 -79 190 -79q111 0 190 79q78 78 78 190v336l366 366q82 79 82 193q0 112 -79 190q-78 79 -189 79h-904q-109 -3 -185 -81t-76 -188zM210 1164q0 66 47 112q46 47 112 47h23q84 -5 144 -57l125 -103 q69 -67 164 -67q96 0 164 67l128 105q57 52 124 55h24q65 0 111 -47q47 -46 47 -112q0 -67 -49 -113l-399 -400v-382q0 -66 -47 -112q-46 -47 -111 -47q-66 0 -112 47q-47 46 -47 112v382l-398 400q-50 47 -50 113zM641 1323h368l-92 -77l-4 -3q-36 -37 -88 -37 q-51 0 -87 37z" />
<glyph unicode="Z" d="M100 269q0 -111 79 -190t190 -79h897q112 0 190 79q79 79 79 190v897q0 111 -79 190q-78 79 -190 79h-897q-111 0 -190 -79t-79 -190q0 -112 79 -190q79 -79 190 -79h248l-434 -434q-83 -79 -83 -194zM211 269q0 67 48 114l625 625h-515q-65 0 -112 46q-46 46 -46 112 q0 65 46 112q47 46 112 46h897q66 0 112 -46q46 -47 46 -112v-101q-3 -28 -79 -101l-178 -177q-51 -51 -51 -114q0 -25 8 -52q15 -52 57 -90q43 -39 99 -51q142 -32 144 -131v-80q0 -65 -46 -112q-46 -46 -112 -46h-897q-65 0 -112 46q-46 47 -46 112zM1230 652q-2 9 -3 17 q0 22 18 39q179 178 179 179v-348q-51 34 -120 49q-59 13 -74 64z" />
<glyph unicode="a" horiz-adv-x="1633" d="M100 269q0 -112 79 -190q78 -79 190 -79h895q76 0 141 40q62 38 97 103q31 59 31 126q0 68 -33 128l-34 68l-405 811q-20 44 -54 78q-79 79 -190 79q-112 0 -190 -79q-35 -34 -55 -78l-439 -879q-33 -60 -33 -128zM210 269q0 40 20 75l443 886q11 26 32 46q46 47 112 47 q65 0 111 -47q21 -20 32 -46l322 -643q-22 3 -43 3q-37 0 -73 -10q-130 -39 -373 -238q-139 -114 -209 -157q-117 -73 -206 -74h-9q-66 0 -112 46q-47 46 -47 112zM672 111q66 44 191 145q226 185 334 218q20 6 41 6q24 0 49 -8q51 -16 83 -62l32 -62v-2l1 -2q20 -35 20 -75 t-19 -74q-45 -84 -140 -84h-592z" />
<glyph unicode="b" horiz-adv-x="1632" d="M100 268q0 -111 79 -189q78 -79 190 -79h760q167 0 285 118t118 285q0 129 -74 233q-73 102 -191 145q86 109 86 248q0 167 -116 285q-117 118 -284 118h-584q-112 0 -190 -79q-79 -78 -79 -189v-896zM210 269v199q1 48 60 87q60 38 134 39h540h8q132 0 238 98l40 -15 q86 -31 139 -107q53 -75 53 -167q0 -121 -86 -207t-207 -86h-760q-66 0 -112 47q-47 46 -47 112zM210 647v517q0 65 47 111q46 47 112 47h584q120 0 205 -86t85 -207q0 -100 -62 -180l-39 -49q-90 -95 -192 -95h-547q-105 -2 -193 -58z" />
<glyph unicode="c" horiz-adv-x="1636" d="M100 718q0 -297 210 -508q211 -210 508 -210t508 210q210 211 210 508q0 194 -97 361l-6 9q-96 159 -256 252q-166 96 -359 96q-297 0 -508 -210q-210 -211 -210 -508zM211 718q0 251 178 429t429 178q163 0 304 -82q137 -79 218 -215q3 -10 -4 -22q-13 -22 -47 -38 q-34 -15 -69 -15h-403q-96 0 -165 -69t-69 -166t69 -166t166 -69h402q65 0 99 -47q17 -24 10 -46q-83 -128 -216 -203q-137 -76 -295 -76q-251 0 -429 178t-178 429zM694 718q0 51 36 88q36 36 88 36h402q102 0 175 65q30 -92 30 -189q0 -101 -33 -197q-68 73 -172 73h-402 q-51 0 -88 36q-36 37 -36 88z" />
<glyph unicode="d" horiz-adv-x="1632" d="M100 268q0 -111 79 -190q78 -78 190 -78h451q33 0 68 4q27 2 40 5q259 40 430 240q174 201 174 467q0 295 -209 505q-208 209 -503 211h-451q-112 0 -190 -79q-79 -78 -79 -189v-896zM210 268v489q114 -96 247 -96h13h277q125 0 214 -89q88 -89 88 -214q0 -88 -31 -151 q-37 -73 -108 -89q-45 -7 -91 -8h-450q-66 0 -112 47q-46 46 -47 111zM210 954v210q1 65 47 111q46 47 112 47l450 -1q249 -1 426 -178q177 -178 177 -427q0 -159 -79 -298q-76 -134 -207 -216q24 71 24 156q0 171 -121 292t-292 121h-280h-12q-101 0 -186 81 q-58 56 -58 102h-1z" />
<glyph unicode="e" d="M100 269q0 -111 79 -190t190 -79h897q111 0 190 79t79 190q0 144 -120 224q120 80 120 224q0 145 -120 225q120 80 120 224q0 111 -79 190t-190 79h-897q-111 0 -190 -79t-79 -190v-897zM211 269v36q1 42 52 75q49 31 103 31h831q54 0 110 21l46 -31q71 -47 71 -132 q0 -65 -46 -112q-47 -46 -112 -46h-897q-65 0 -112 46q-46 47 -46 112zM211 476v178q0 206 155 206h808h5q61 0 126 22l48 -32q71 -48 71 -133q0 -84 -71 -132l-42 -28q-57 -35 -114 -35h-831q-82 -1 -155 -46zM211 923v243q0 65 46 112q47 46 112 46h897q65 0 112 -46 q46 -47 46 -112q0 -85 -71 -132l-48 -33q-61 -30 -126 -30h-4h-809q-92 0 -155 -48z" />
<glyph unicode="f" d="M100 269q0 -112 79 -190q79 -79 190 -79t190 79q79 78 79 190v179h179q112 0 191 79t79 190q0 103 -69 180h248q111 0 190 79q79 78 79 190q0 111 -79 190t-190 79h-897q-111 0 -190 -79q-79 -78 -79 -190v-897zM211 269v429q4 87 58 143q55 56 137 56h463l67 -74 q40 -45 40 -106q0 -64 -45 -110t-110 -48h-293l-1 -290q0 -66 -46 -112t-112 -46q-65 0 -112 46q-46 46 -46 112zM211 937v229q0 66 46 112q47 46 112 46h897q65 0 112 -46q46 -47 46 -112q0 -66 -46 -112q-47 -47 -112 -47h-211v1h-649q-112 0 -195 -71z" />
<glyph unicode="g" horiz-adv-x="1636" d="M100 718q0 -297 210 -508q211 -210 508 -210h449q111 0 190 79t79 190v449q0 297 -210 508q-211 210 -508 210t-508 -210q-210 -211 -210 -508zM211 718q0 251 178 429t429 178q160 0 298 -78q134 -76 216 -206q9 -26 -4 -45q-31 -43 -108 -43h-403q-97 0 -165 -69 q-69 -69 -69 -166t69 -166t166 -69h472q76 0 135 24v-238q0 -65 -46 -112q-47 -46 -112 -46h-449q-251 0 -429 178t-178 429zM694 718q0 51 36 88q36 36 87 36h403q108 0 175 64q30 -92 30 -189v-59q0 -18 -11 -30q-34 -34 -124 -34h-472q-51 0 -88 36q-36 37 -36 88z" />
<glyph unicode="h" d="M100 269q0 -111 79 -190t190 -79h897q111 0 190 79t79 190v897q0 111 -79 190t-190 79t-190 -79t-79 -190q0 -74 -53 -127q-52 -52 -126 -52q-75 0 -127 52q-53 53 -53 127q0 111 -79 190q-78 79 -190 79q-111 0 -190 -79t-79 -190v-897zM211 269v897q0 65 46 112 q47 46 112 46q66 0 112 -46q47 -47 47 -112q0 -120 85 -205t205 -85q119 0 204 85t86 205q0 65 46 112q46 46 112 46q65 0 112 -46q46 -47 46 -112v-897q0 -65 -46 -112q-47 -46 -112 -46h-71q-58 0 -100 46q-42 47 -43 112q0 97 -69 166q-68 69 -165 69t-166 -69t-69 -166 q0 -68 -36 -113q-37 -45 -92 -45h-86q-65 0 -112 46q-46 47 -46 112zM650 111q43 69 43 158q1 51 37 88q36 36 88 36q51 0 87 -36q37 -37 37 -88q0 -87 49 -158h-341z" />
<glyph unicode="i" horiz-adv-x="739" d="M100 270q0 -112 79 -191t191 -79q111 0 190 79t79 191v898q0 112 -79 191t-190 79q-112 0 -191 -79t-79 -191v-898zM211 270v19q0 112 212 417q72 104 105 157v-593q0 -66 -46 -113q-47 -46 -112 -46q-66 0 -113 46q-46 47 -46 113zM211 588v580q0 66 46 113 q47 46 113 46q65 0 112 -46q46 -47 46 -113v-24q-2 -95 -196 -375q-84 -120 -121 -181z" />
<glyph unicode="j" horiz-adv-x="1633" d="M100 524q6 -219 162 -371q157 -153 375 -153h359q222 0 380 157q157 158 157 380v627q0 112 -79 190q-78 79 -190 79q-111 0 -190 -79q-78 -78 -78 -190v-627q0 -74 -53 -126q-52 -53 -126 -53q-75 0 -127 53q-53 52 -53 126q0 112 -78 190q-79 79 -190 79 q-112 0 -190 -79q-79 -78 -79 -190v-13zM210 537q0 66 47 112q46 47 112 47q65 0 112 -47q46 -46 46 -112v-16q2 -244 169 -406q0 -1 2 -2l3 -3h-64q-175 0 -298 121q-124 120 -128 295q-1 8 -1 11zM714 267q50 -19 103 -19q119 0 204 85t85 204v627q0 66 47 112 q46 47 111 47q66 0 112 -47q47 -46 47 -112v-627q0 -176 -126 -301q-125 -126 -301 -126h-41q-100 4 -182 84q-32 31 -59 73z" />
<glyph unicode="k" d="M100 269q0 -111 79 -190t190 -79h897q108 0 186 74q77 74 83 181v14q0 115 -83 194l-254 254l254 255q83 79 83 194q0 111 -79 190t-190 79h-897q-111 0 -190 -79t-79 -190v-897zM211 269v897q0 66 46 112q47 46 112 46h292q-17 -42 -17 -94q0 -97 67 -165l665 -682 q49 -46 49 -114q0 -4 -1 -8q-3 -63 -49 -107q-46 -43 -109 -43h-897q-65 0 -112 46q-46 47 -46 112zM754 1230q0 94 66 94h446q66 0 112 -46q47 -47 47 -112q0 -67 -49 -114l-256 -256l-330 346q-36 37 -36 88z" />
<glyph unicode="l" d="M100 269q0 -111 78 -190q79 -79 190 -79h898q112 0 190 79q79 79 79 190q0 106 -73 183q-902 903 -904 905q-5 5 -17 16q-75 62 -172 62q-111 0 -190 -79t-79 -190v-897zM211 269v897q0 65 46 112q47 46 112 46q64 0 111 -45q86 -88 90 -276v-295q0 -97 69 -165 q68 -69 165 -69h322q153 0 239 -80l11 -11q48 -46 48 -114q0 -65 -46 -112q-46 -46 -112 -46h-897q-66 0 -112 46q-46 47 -46 112zM676 1083l501 -501q-30 3 -56 2h-317q-51 0 -87 37q-36 36 -36 87v274q-4 90 -5 101z" />
<glyph unicode="m" horiz-adv-x="2234" d="M100 269q0 -67 31 -126q35 -65 97 -103q65 -40 141 -40h1496q112 0 190 79q79 78 79 190q0 68 -33 128l-439 879q-20 44 -54 78q-79 79 -190 79q-112 0 -190 -79q-35 -34 -55 -78l-56 -112l-56 112q-20 44 -54 78q-79 79 -190 79q-112 0 -190 -79q-35 -34 -55 -78 l-439 -879q-33 -60 -33 -128zM211 269q0 40 19 75l443 886q11 26 32 46q46 47 112 47q65 0 112 -47q20 -20 32 -46l457 -941q55 -114 116 -178h-1165q-95 0 -140 84q-18 34 -18 74zM1178 1039l96 191q11 26 32 46q46 47 112 47q65 0 111 -47q21 -20 33 -46l443 -886 q19 -35 19 -75q0 -66 -47 -112q-46 -46 -112 -46h-92q-79 3 -139 56q-60 54 -116 170z" />
<glyph unicode="n" horiz-adv-x="1634" d="M100 269q0 -111 79 -190q78 -79 190 -79h896q111 0 190 79q79 78 79 190v896q0 112 -79 190q-78 79 -190 79q-111 0 -190 -79q-79 -78 -79 -190v-247l-433 433q-80 83 -194 83q-112 0 -190 -79q-79 -78 -79 -190v-896zM210 269v212q3 63 46 100t113 37q88 0 151 -62 l409 -398q26 -25 53 -47h-616q-65 1 -110 47q-46 46 -46 111zM210 684v481q0 66 47 112q46 46 112 46q67 0 114 -48l435 -435l189 -189v514q0 66 46 112q47 46 112 46q66 0 112 -46t46 -112v-896q0 -66 -46 -112q-47 -46 -112 -46h-55q-74 4 -205 126l-408 398 q-95 94 -228 94q-90 0 -159 -45z" />
<glyph unicode="o" horiz-adv-x="1633" d="M100 716q0 -296 210 -506t506 -210q19 0 42 1q32 2 58 6q263 37 439 237q178 203 178 472q0 297 -210 507t-507 210q-25 0 -49 -2q-281 -19 -473 -225q-194 -206 -194 -490zM211 716q0 273 204 454q-12 -47 -12 -95q0 -171 121 -293q122 -121 292 -121q126 0 215 -89 q89 -88 89 -214t-89 -190q-61 -44 -157 -55q-30 -3 -58 -3q-250 0 -428 178q-177 178 -177 428zM514 1075q0 119 85 185q72 55 188 62q16 1 29 1q251 0 429 -178t178 -429q0 -271 -204 -452q11 46 11 94q0 171 -121 292q-121 122 -293 122q-125 0 -214 89q-88 88 -88 214z " />
<glyph unicode="p" d="M100 269q0 -111 79 -190t190 -79q112 0 190 79q79 79 79 190v90q0 37 26 63q27 27 64 27h314q204 0 349 144q144 144 144 349q0 204 -145 349q-145 144 -350 144h-581q-149 0 -254 -105t-105 -254v-807zM211 269v25q1 64 31 105q36 50 102 50h205q-21 -43 -21 -90v-90 q0 -65 -47 -112q-46 -46 -112 -46q-65 0 -112 46q-46 47 -46 112zM211 521v555q0 103 72 176q73 72 176 72h581q159 0 272 -112q112 -112 112 -270t-112 -271q-112 -112 -270 -112h-698q-75 0 -133 -38z" />
<glyph unicode="q" horiz-adv-x="1633" d="M100 717q0 -297 210 -507t506 -210q148 0 282 58q73 -58 166 -58q112 0 190 79q79 78 79 190q0 93 -58 166q58 134 58 282q0 296 -210 506t-507 210q-296 0 -506 -210t-210 -506zM212 677q0 50 29 78q29 27 81 27q51 0 87 -36l599 -604q-93 -31 -192 -31q-240 0 -415 164 q-174 165 -189 402zM232 876q53 195 214 320q164 127 370 127q251 0 429 -178t178 -428q0 -125 -49 -239l-26 -60l41 -52q34 -43 34 -97q0 -66 -47 -112q-46 -46 -112 -46q-54 0 -97 33l-27 21l-653 660q-68 67 -165 67q-48 0 -90 -16z" />
<glyph unicode="r" d="M100 269q0 -111 79 -190t190 -79h837q100 6 173 79q79 79 79 190q0 112 -79 191l-68 68q103 67 162 175q62 111 62 239q0 204 -144 349q-145 144 -349 144h-583q-149 0 -254 -105t-105 -254v-807zM211 269v50q1 50 26 86q28 40 72 41h730q94 0 169 28l25 -24l68 -68 q46 -47 46 -113q0 -65 -46 -112q-42 -42 -102 -46h-13h-817q-65 0 -112 46q-46 47 -46 112zM211 528v548q0 103 72 176q73 72 176 72h583q158 0 270 -112t112 -270q0 -98 -46 -183t-128 -138l-8 -6q-89 -58 -203 -58l-731 -1q-52 -1 -97 -28z" />
<glyph unicode="s" horiz-adv-x="1634" d="M100 538q0 -223 210 -380q210 -158 507 -158h8q294 2 502 160q207 157 207 378q0 92 -41 179q41 87 41 179q0 223 -210 380q-210 158 -507 158t-507 -158q-210 -157 -210 -380q0 -73 27 -145q9 -24 14 -34q-41 -87 -41 -179zM211 538q0 35 8 71q106 -123 266 -192 q161 -70 344 -70q51 0 88 -36q36 -36 36 -87q0 -49 -36 -80q-32 -29 -79 -33h-21h-4q-258 0 -437 135q-165 124 -165 292zM211 896q0 168 165 292q90 67 209 103q-14 -39 -14 -80q0 -97 69 -166t166 -69q200 0 363 -93q164 -92 238 -248q16 -48 16 -97q0 -168 -165 -292 q-90 -68 -210 -103q16 39 16 81q0 97 -69 165q-69 69 -166 69q-199 0 -362 91q-163 90 -237 242q-19 52 -19 105zM682 1211q0 48 30 79q31 31 81 33q31 0 24 0q260 0 441 -135q165 -124 165 -292q0 -35 -9 -72q-106 123 -265 192q-161 71 -343 71q-52 0 -88 36t-36 88z" />
<glyph unicode="t" horiz-adv-x="1636" d="M100 1167q0 -112 79 -191q79 -78 190 -79h180v-628q0 -111 79 -190t190 -79t190 79t79 190v628h180q111 1 190 79q79 79 79 191q0 111 -79 190t-190 79h-898q-111 0 -190 -79t-79 -190zM211 1167q0 65 46 112q47 46 112 46h898q65 0 112 -46q46 -47 46 -112 q0 -66 -46 -112q-47 -47 -112 -47h-304q-180 0 -304 -133v133h-290q-65 0 -112 47q-46 46 -46 112zM659 269v326q1 125 90 214q89 88 214 88h13v-628q0 -65 -46 -112q-47 -46 -112 -46q-66 0 -112 46q-46 47 -47 112z" />
<glyph unicode="u" horiz-adv-x="1634" d="M100 713q2 -295 211 -504q210 -209 506 -209t506 209q209 209 211 504v452q0 111 -79 190q-78 79 -190 79h-896q-112 0 -190 -79q-79 -79 -79 -190v-452zM211 714v451q0 66 46 112t112 46h104q102 0 173 -40q109 -62 109 -209v-278q0 -171 121 -292q121 -122 292 -122 q100 0 179 41q-79 -142 -219 -226q-143 -86 -311 -86q-249 0 -427 177q-178 176 -179 426zM770 1323h495q66 0 112 -46t46 -112l1 -389q0 -133 -68 -208t-188 -75q-125 0 -214 89t-89 214v278q0 153 -95 249z" />
<glyph unicode="v" d="M100 1166q0 -69 33 -129l440 -880q20 -44 54 -78q79 -79 191 -79q111 0 190 79q34 34 54 78l406 812l34 68q33 60 33 129q0 67 -31 126q-35 65 -97 103q-65 40 -141 40h-897q-111 0 -190 -79t-79 -190zM211 1166q0 65 46 112q47 46 112 46h9q89 -1 206 -74 q70 -44 210 -157q243 -200 373 -238q36 -11 73 -11q22 0 44 4l-322 -645q-12 -26 -32 -46q-47 -46 -112 -46q-66 0 -112 46q-21 20 -33 46l-443 887q-19 36 -19 76zM673 1324h593q95 0 140 -84q18 -34 18 -74q0 -41 -19 -76l-1 -2l-1 -1l-31 -63q-32 -46 -84 -62 q-23 -7 -46 -8q-21 0 -43 7q-109 32 -335 217q-125 102 -191 146z" />
<glyph unicode="w" horiz-adv-x="2235" d="M100 1165q0 -68 33 -128l439 -880q21 -44 55 -78q79 -79 190 -79t190 79q35 34 55 78l56 112l56 -112q20 -44 54 -78q79 -79 190 -79q112 0 191 79q34 34 54 78l440 880q32 59 32 128q0 112 -78 190q-79 79 -190 79h-1498q-76 0 -141 -40q-62 -38 -97 -103 q-31 -59 -31 -126zM211 1165q0 40 18 74q45 84 140 84h1166q-61 -65 -116 -178l-458 -942q-12 -26 -32 -46q-46 -46 -112 -46t-112 46q-20 20 -32 46l-443 886q-19 36 -19 76zM1179 394l340 703q56 116 116 169q60 54 139 57h93q65 0 111 -46q47 -46 47 -112q0 -40 -19 -75 l-444 -887q-11 -26 -32 -46q-46 -46 -112 -46q-65 0 -111 46q-21 20 -33 46z" />
<glyph unicode="x" d="M100 269q0 -111 79 -190t190 -79q115 0 194 83l254 254l255 -254q79 -83 194 -83q111 0 190 79t79 190v897q0 111 -79 190t-190 79q-115 0 -194 -83l-255 -254l-254 254q-79 83 -194 83q-111 0 -190 -79t-79 -190v-897zM211 269v32q0 36 42 116q43 85 88 127 q73 67 73 169q0 98 -69 175q-127 141 -134 231v47q0 65 46 112q47 46 112 46q68 0 114 -48l334 -335l335 335q47 48 114 48q66 0 112 -46q46 -47 46 -112v-38v-5q0 -32 -34 -95q-39 -73 -100 -140q-69 -77 -69 -175q0 -102 72 -169q45 -42 89 -127q41 -80 42 -116v-32 q0 -65 -46 -112q-47 -46 -112 -46q-67 0 -114 48l-335 335l-332 -333l-1 -1l-1 -1q-46 -48 -114 -48q-65 0 -112 46q-46 47 -46 112zM211 560v317q25 -34 52 -63q37 -42 40 -94v-10q0 -51 -37 -85q-27 -25 -55 -65zM1332 720q3 53 40 94q27 29 52 64v-318q-28 40 -55 65 q-37 34 -37 85v10z" />
<glyph unicode="y" horiz-adv-x="1633" d="M100 1164q0 -114 82 -193l366 -366v-336q0 -112 79 -190q78 -79 190 -79q111 0 190 79q78 78 78 190v336l366 366q82 79 82 193q0 112 -79 190q-78 79 -189 79h-904q-109 -3 -185 -81t-76 -188zM210 1164q0 66 47 112q46 47 112 47h23q84 -5 144 -57l125 -103 q69 -67 164 -67q96 0 164 67l128 105q57 52 124 55h24q65 0 111 -47q47 -46 47 -112q0 -67 -49 -113l-399 -400v-382q0 -66 -47 -112q-46 -47 -111 -47q-66 0 -112 47q-47 46 -47 112v382l-398 400q-50 47 -50 113zM641 1323h368l-92 -77l-4 -3q-36 -37 -88 -37 q-51 0 -87 37z" />
<glyph unicode="z" d="M100 269q0 -111 79 -190t190 -79h897q112 0 190 79q79 79 79 190v897q0 111 -79 190q-78 79 -190 79h-897q-111 0 -190 -79t-79 -190q0 -112 79 -190q79 -79 190 -79h248l-434 -434q-83 -79 -83 -194zM211 269q0 67 48 114l625 625h-515q-65 0 -112 46q-46 46 -46 112 q0 65 46 112q47 46 112 46h897q66 0 112 -46q46 -47 46 -112v-101q-3 -28 -79 -101l-178 -177q-51 -51 -51 -114q0 -25 8 -52q15 -52 57 -90q43 -39 99 -51q142 -32 144 -131v-80q0 -65 -46 -112q-46 -46 -112 -46h-897q-65 0 -112 46q-46 47 -46 112zM1230 652q-2 9 -3 17 q0 22 18 39q179 178 179 179v-348q-51 34 -120 49q-59 13 -74 64z" />
<glyph unicode="&#xad;" horiz-adv-x="742" d="M100 437v83q0 39 43 39h456q43 0 43 -39v-83q0 -38 -42 -38h-458q-42 0 -42 38z" />
<glyph unicode="&#x2000;" horiz-adv-x="793" />
<glyph unicode="&#x2001;" horiz-adv-x="1587" />
<glyph unicode="&#x2002;" horiz-adv-x="793" />
<glyph unicode="&#x2003;" horiz-adv-x="1587" />
<glyph unicode="&#x2004;" horiz-adv-x="529" />
<glyph unicode="&#x2005;" horiz-adv-x="396" />
<glyph unicode="&#x2006;" horiz-adv-x="264" />
<glyph unicode="&#x2007;" horiz-adv-x="264" />
<glyph unicode="&#x2008;" horiz-adv-x="198" />
<glyph unicode="&#x2009;" horiz-adv-x="317" />
<glyph unicode="&#x200a;" horiz-adv-x="88" />
<glyph unicode="&#x2010;" horiz-adv-x="742" d="M100 437v83q0 39 43 39h456q43 0 43 -39v-83q0 -38 -42 -38h-458q-42 0 -42 38z" />
<glyph unicode="&#x2011;" horiz-adv-x="742" d="M100 437v83q0 39 43 39h456q43 0 43 -39v-83q0 -38 -42 -38h-458q-42 0 -42 38z" />
<glyph unicode="&#x2012;" horiz-adv-x="742" d="M100 437v83q0 39 43 39h456q43 0 43 -39v-83q0 -38 -42 -38h-458q-42 0 -42 38z" />
<glyph unicode="&#x2013;" horiz-adv-x="1196" d="M100 399v160h996v-160h-996z" />
<glyph unicode="&#x2014;" horiz-adv-x="2248" d="M100 399v160h2048v-160h-2048z" />
<glyph unicode="&#x2018;" horiz-adv-x="500" d="M100 1233q0 108 74 231t184 123v-55q-73 -43 -87 -188q0 -115 129 -157v-46l-129 -135q-75 0 -123 70.5t-48 156.5z" />
<glyph unicode="&#x2019;" horiz-adv-x="500" d="M100 1406v46l129 135q75 0 123 -70.5t48 -156.5q0 -108 -74 -231t-184 -123v55q73 43 87 188q0 115 -129 157z" />
<glyph unicode="&#x201a;" horiz-adv-x="500" d="M100 87v46l129 135q75 0 123 -70.5t48 -156.5q0 -108 -74 -231t-184 -123v55q73 43 87 188q0 115 -129 157z" />
<glyph unicode="&#x201c;" horiz-adv-x="860" d="M100 1233q0 108 74 231t184 123v-55q-73 -43 -87 -188q0 -115 129 -157v-46l-129 -135q-75 0 -123 70.5t-48 156.5zM460 1233q0 108 74 231t184 123v-55q-73 -43 -87 -188q0 -115 129 -157v-46l-129 -135q-75 0 -123 70.5t-48 156.5z" />
<glyph unicode="&#x201d;" horiz-adv-x="860" d="M100 1406v46l129 135q75 0 123 -70.5t48 -156.5q0 -108 -74 -231t-184 -123v55q73 43 87 188q0 115 -129 157zM460 1406v46l129 135q75 0 123 -70.5t48 -156.5q0 -108 -74 -231t-184 -123v55q73 43 87 188q0 115 -129 157z" />
<glyph unicode="&#x201e;" horiz-adv-x="860" d="M100 87v46l129 135q75 0 123 -70.5t48 -156.5q0 -108 -74 -231t-184 -123v55q73 43 87 188q0 115 -129 157zM460 86v46l129 135q75 0 123 -70.5t48 -156.5q0 -107 -74 -230t-184 -123v55q73 43 87 188q0 114 -129 156z" />
<glyph unicode="&#x2026;" horiz-adv-x="1852" d="M100 144q0 16 17 33l95 89q18 15 34 15q14 0 34 -17l93 -91q13 -17 13 -31q0 -15 -16 -32l-91 -94q-24 -21 -33 -21q-19 0 -34 15l-101 107q-11 14 -11 27zM782 144q0 16 17 33l95 89q18 15 34 15q14 0 34 -17l93 -91q13 -17 13 -31q0 -15 -16 -32l-91 -94 q-24 -21 -33 -21q-19 0 -34 15l-101 107q-11 14 -11 27zM1466 144q0 16 17 33l95 89q18 15 34 15q14 0 34 -17l93 -91q13 -17 13 -31q0 -15 -16 -32l-91 -94q-24 -21 -33 -21q-19 0 -34 15l-101 107q-11 14 -11 27z" />
<glyph unicode="&#x202f;" horiz-adv-x="317" />
<glyph unicode="&#x205f;" horiz-adv-x="396" />
<glyph unicode="&#x25fc;" horiz-adv-x="1435" d="M0 0v1435h1435v-1435h-1435z" />
</font>
</defs>
</svg>
